<?xml version="1.0" standalone="no"?>
<!DOCTYPE svg PUBLIC "-//W3C//DTD SVG 20010904//EN"
 "http://www.w3.org/TR/2001/REC-SVG-20010904/DTD/svg10.dtd">
<svg version="1.0" xmlns="http://www.w3.org/2000/svg"
 width="1024.000000pt" height="1024.000000pt" viewBox="0 0 1024.000000 1024.000000"
 preserveAspectRatio="xMidYMid meet">

<g transform="translate(0.000000,1024.000000) scale(0.100000,-0.100000)"
fill="#000000" stroke="none">
<path d="M4887 9700 c-731 -57 -1392 -379 -1865 -910 -783 -879 -961 -2063
-466 -3100 116 -241 288 -500 437 -657 l89 -93 -111 -370 c-61 -204 -111 -388
-111 -408 0 -21 7 -48 16 -61 22 -31 71 -51 103 -41 14 4 209 87 432 184 223
97 414 176 425 176 10 0 77 -27 149 -59 389 -176 730 -251 1145 -251 619 0
1185 189 1702 570 130 96 366 324 475 460 326 405 515 835 594 1350 18 119 22
189 23 390 0 267 -8 362 -55 592 -105 521 -355 986 -744 1387 -340 349 -717
581 -1180 724 -299 93 -742 142 -1058 117z m410 -301 c272 -22 473 -65 703
-150 526 -196 966 -563 1276 -1064 90 -146 153 -282 214 -462 135 -393 172
-726 129 -1133 -45 -422 -227 -869 -492 -1210 -136 -175 -352 -380 -536 -510
-177 -125 -524 -304 -680 -351 -43 -13 -44 -12 -65 17 -50 69 -127 153 -206
223 -74 66 -84 79 -82 106 4 35 93 579 96 582 2 2 72 -8 157 -21 232 -36 324
-41 399 -22 119 31 208 93 255 177 29 52 30 59 30 185 l1 132 36 40 c42 47 52
83 39 142 -9 40 -7 46 16 74 26 31 27 48 10 191 -2 16 17 29 88 65 101 51 142
97 152 168 9 64 -16 119 -162 352 l-135 217 6 124 c8 151 -10 269 -67 442 -37
113 -117 289 -160 348 l-20 29 28 11 c15 6 129 46 253 90 333 116 338 135 70
249 -80 34 -456 196 -837 361 -380 164 -694 299 -698 299 -4 0 -115 -46 -248
-101 -256 -107 -1141 -466 -1389 -564 -153 -59 -170 -73 -148 -114 14 -27 21
-30 178 -86 l132 -47 0 -208 0 -208 -23 -6 c-79 -19 -121 -157 -63 -205 9 -7
16 -19 16 -26 0 -7 -36 -132 -80 -278 -44 -146 -80 -273 -80 -282 0 -27 47
-35 200 -35 161 0 185 7 175 53 -2 12 -14 156 -26 320 -21 280 -21 300 -6 327
15 24 17 62 17 265 l0 236 23 -7 c12 -4 290 -114 617 -244 327 -131 612 -243
632 -249 40 -13 -36 -41 807 288 157 61 285 111 287 111 1 0 5 -16 8 -35 4
-20 16 -57 27 -82 11 -25 18 -47 17 -48 -2 -1 -43 -14 -93 -29 -172 -53 -782
-288 -964 -372 l-73 -34 -152 74 c-135 66 -295 134 -818 349 l-158 65 0 -72
c0 -39 -5 -232 -11 -429 -10 -323 -10 -367 6 -460 33 -200 125 -427 255 -632
l63 -100 -33 -165 c-46 -230 -108 -480 -124 -505 -45 -69 -729 -869 -786 -920
l-22 -20 7 45 c4 25 27 105 51 179 24 74 44 142 44 150 0 28 -59 119 -118 183
-359 388 -606 914 -673 1432 -16 123 -6 551 15 676 35 205 68 323 149 525 79
199 128 295 227 445 270 408 599 699 1025 905 389 187 848 271 1292 234z
m1005 -1792 c41 -128 55 -249 39 -345 -22 -132 -9 -166 154 -426 63 -101 115
-190 115 -199 0 -20 -16 -31 -83 -56 -87 -32 -135 -59 -148 -82 -9 -17 -7 -47
6 -132 l18 -110 -25 -21 c-14 -12 -33 -26 -44 -32 -17 -10 -17 -13 9 -67 l27
-57 -45 -56 -45 -55 2 -127 c3 -118 1 -129 -19 -158 -38 -53 -84 -69 -193 -68
-137 0 -445 65 -719 150 -127 40 -154 38 -164 -12 -14 -73 43 -136 184 -205
38 -19 67 -38 66 -44 -2 -5 -26 -126 -53 -267 -27 -142 -52 -258 -57 -258 -22
0 -966 549 -986 574 -9 11 -1 59 33 208 39 167 90 416 111 541 3 21 9 37 13
35 88 -47 196 -62 250 -34 39 20 80 73 88 115 6 31 6 31 -20 21 -85 -32 -196
10 -252 95 -49 73 -72 141 -86 249 -10 82 -10 101 6 158 30 113 103 175 217
185 79 8 124 -3 164 -39 l35 -30 0 56 c0 38 4 56 13 56 6 0 73 26 147 57 347
144 839 338 998 393 98 34 181 66 187 71 18 18 30 1 57 -84z"/>
<path d="M3155 3810 c-296 -47 -550 -280 -631 -580 -26 -93 -25 -311 0 -400
76 -261 255 -452 501 -536 68 -23 102 -28 220 -32 162 -5 269 15 376 69 l62
31 91 -91 c63 -63 99 -91 115 -91 23 0 161 123 182 162 16 29 -14 78 -94 157
l-75 73 48 75 c90 137 125 268 117 433 -18 342 -259 639 -580 715 -80 19 -255
27 -332 15z m307 -334 c125 -60 228 -196 258 -343 16 -76 7 -193 -19 -264
l-21 -56 -92 94 c-62 63 -99 93 -114 93 -32 0 -193 -166 -194 -199 0 -16 26
-50 85 -110 47 -48 85 -90 85 -93 0 -4 -20 -14 -45 -23 -34 -13 -66 -16 -138
-13 -122 5 -199 40 -281 128 -181 196 -182 498 -3 687 97 103 176 135 322 130
85 -3 109 -7 157 -31z"/>
<path d="M4282 3778 c-19 -19 -17 -980 3 -1073 45 -216 216 -382 440 -430 95
-20 306 -20 398 1 172 38 329 149 395 280 65 129 65 128 69 690 4 463 3 513
-12 528 -14 13 -41 16 -169 16 -114 0 -156 -3 -164 -13 -8 -9 -12 -173 -14
-518 l-3 -504 -27 -47 c-57 -95 -139 -138 -268 -138 -103 0 -163 22 -221 80
-79 79 -79 79 -79 635 0 361 -3 484 -12 493 -8 8 -60 12 -168 12 -108 0 -160
-4 -168 -12z"/>
<path d="M5902 3778 c-15 -15 -17 -1464 -2 -1488 8 -12 37 -15 159 -15 82 -1
159 2 170 7 21 7 21 8 21 746 0 561 -3 741 -12 750 -8 8 -60 12 -168 12 -108
0 -160 -4 -168 -12z"/>
<path d="M6542 3778 c-8 -8 -12 -55 -12 -145 0 -125 1 -133 22 -144 15 -8 114
-10 355 -7 183 2 333 3 333 1 0 -1 -44 -60 -98 -130 -54 -71 -217 -285 -361
-477 l-263 -348 4 -110 c3 -95 6 -112 22 -124 17 -12 113 -14 587 -14 l568 0
15 22 c22 31 23 235 2 264 -14 18 -33 19 -375 24 l-360 5 97 125 c53 69 217
282 364 475 l268 349 0 104 c0 57 -5 112 -10 123 -10 18 -27 19 -578 19 -429
0 -571 -3 -580 -12z"/>
<path d="M4865 2034 c-11 -2 -45 -9 -75 -15 -123 -25 -236 -106 -285 -206 -24
-48 -30 -74 -33 -149 -6 -122 12 -176 84 -253 63 -69 127 -102 304 -162 186
-62 230 -95 230 -173 0 -79 -52 -116 -163 -116 -100 0 -172 30 -304 126 -16
11 -26 13 -41 5 -27 -15 -142 -176 -142 -199 0 -40 136 -125 260 -164 64 -20
96 -23 220 -23 123 0 156 3 217 23 214 67 321 288 246 507 -21 63 -105 148
-188 192 -33 17 -125 52 -204 79 -172 57 -211 85 -211 154 0 34 6 48 33 75 69
69 220 51 342 -40 41 -30 68 -37 87 -23 31 26 128 165 128 186 0 44 -157 138
-268 161 -61 13 -208 22 -237 15z"/>
<path d="M1629 1993 c-12 -13 -14 -124 -14 -628 0 -504 2 -615 14 -628 11 -14
35 -17 140 -17 85 0 131 4 139 12 9 9 12 111 12 397 l0 384 156 -254 c86 -140
165 -266 176 -281 24 -34 48 -36 75 -6 21 25 309 485 319 512 3 9 9 16 13 16
3 0 5 -165 3 -366 -2 -318 -1 -370 13 -390 15 -23 20 -24 140 -24 117 0 125 1
139 22 14 20 16 96 16 629 0 578 -1 607 -19 623 -16 14 -38 16 -157 14 l-139
-3 -177 -288 c-97 -158 -180 -289 -183 -290 -4 -1 -83 120 -175 268 -93 149
-176 280 -185 293 -15 21 -22 22 -154 22 -117 0 -141 -3 -152 -17z"/>
<path d="M3602 2001 c-11 -7 -334 -838 -456 -1173 -39 -107 -38 -108 124 -108
154 0 155 1 195 115 15 44 34 92 42 108 l14 27 237 -2 237 -3 40 -108 c22 -60
49 -115 59 -123 15 -10 53 -14 146 -14 126 0 150 6 150 37 0 18 -458 1202
-476 1231 -14 21 -20 22 -157 22 -78 0 -148 -4 -155 -9z m219 -559 c37 -103
70 -195 74 -204 7 -17 -4 -18 -145 -18 -117 0 -151 3 -148 13 54 155 144 397
148 397 3 0 35 -85 71 -188z"/>
<path d="M5522 1998 c-8 -8 -12 -51 -12 -130 0 -106 2 -118 19 -128 11 -5 84
-10 165 -10 l146 0 0 -493 c0 -370 3 -496 12 -505 8 -8 54 -12 139 -12 103 0
131 3 143 16 14 14 16 73 16 505 l0 489 149 0 c123 0 152 3 165 16 23 23 23
225 0 248 -14 14 -70 16 -473 16 -342 0 -460 -3 -469 -12z"/>
<path d="M6635 1994 c-14 -14 -15 -80 -13 -635 3 -538 5 -621 18 -629 9 -6
176 -9 420 -7 l405 2 0 130 0 130 -267 3 -268 2 0 120 0 120 228 2 227 3 0
130 0 130 -227 3 -228 2 0 115 0 114 255 3 c192 2 257 6 267 16 20 20 18 239
-2 252 -9 6 -177 10 -407 10 -345 0 -393 -2 -408 -16z"/>
<path d="M7682 1998 c-9 -9 -12 -163 -12 -629 l0 -618 22 -15 c26 -19 227 -23
259 -6 18 10 19 23 19 226 l0 215 66 -3 66 -3 124 -205 c68 -113 134 -213 145
-223 19 -15 39 -17 152 -15 108 3 132 6 140 20 10 15 -31 91 -232 429 l-21 36
51 32 c63 41 121 114 150 188 19 47 23 78 24 164 0 102 -1 107 -38 181 -57
117 -147 189 -280 224 -70 18 -617 20 -635 2z m583 -280 c59 -32 79 -63 83
-132 4 -59 2 -65 -28 -99 -44 -50 -105 -67 -244 -67 l-111 0 2 158 c1 86 2
159 2 162 1 3 61 3 133 0 96 -4 141 -10 163 -22z"/>
</g>
</svg>
